<?xml version="1.0" encoding="UTF-8"?>
<!DOCTYPE svg PUBLIC "-//W3C//DTD SVG 1.1//EN" "http://www.w3.org/Graphics/SVG/1.1/DTD/svg11.dtd">
<svg xmlns="http://www.w3.org/2000/svg" version="1.1" width="48px" height="48px" style="shape-rendering:geometricPrecision; text-rendering:geometricPrecision; image-rendering:optimizeQuality; fill-rule:evenodd; clip-rule:evenodd" xmlns:xlink="http://www.w3.org/1999/xlink">
<g><path style="opacity:0.661" fill="#8a9eff" d="M 18.5,9.5 C 17.0695,9.42082 15.7362,9.75415 14.5,10.5C 13.4777,10.1445 12.811,9.47784 12.5,8.5C 13.2739,7.85287 14.2739,7.51954 15.5,7.5C 17.0296,7.63985 18.0296,8.30652 18.5,9.5 Z"/></g>
<g><path style="opacity:0.578" fill="#8b9eff" d="M 31.5,7.5 C 31.1667,8.5 30.5,9.16667 29.5,9.5C 28.3398,7.79734 29.0065,7.13068 31.5,7.5 Z"/></g>
<g><path style="opacity:0.982" fill="#bb75ff" d="M 31.5,7.5 C 36.2619,7.96279 39.7619,10.2961 42,14.5C 44.0145,20.5804 45.5145,26.747 46.5,33C 43.0723,37.0479 38.739,39.5479 33.5,40.5C 31.8307,39.3291 30.3307,37.9958 29,36.5C 25.3333,37.8333 21.6667,37.8333 18,36.5C 16.6693,37.9958 15.1693,39.3291 13.5,40.5C 8.51852,39.5933 4.35185,37.2599 1,33.5C 0.952325,24.8585 3.45233,17.0252 8.5,10C 9.74499,9.20858 11.0783,8.70858 12.5,8.5C 12.811,9.47784 13.4777,10.1445 14.5,10.5C 15.7362,9.75415 17.0695,9.42082 18.5,9.5C 22.1337,8.24197 25.8004,8.24197 29.5,9.5C 30.5,9.16667 31.1667,8.5 31.5,7.5 Z M 15.5,22.5 C 19.35,22.7007 20.35,24.5341 18.5,28C 17.2068,28.49 15.8734,28.6567 14.5,28.5C 14.3253,26.3792 14.6586,24.3792 15.5,22.5 Z M 28.5,22.5 C 32.35,22.7007 33.35,24.5341 31.5,28C 30.2068,28.49 28.8734,28.6567 27.5,28.5C 27.3253,26.3792 27.6586,24.3792 28.5,22.5 Z"/></g>
</svg>