<?xml version="1.0" encoding="UTF-8"?>
<!DOCTYPE svg PUBLIC "-//W3C//DTD SVG 1.1//EN" "http://www.w3.org/Graphics/SVG/1.1/DTD/svg11.dtd">
<svg xmlns="http://www.w3.org/2000/svg" version="1.1" width="200px" height="200px" style="shape-rendering:geometricPrecision; text-rendering:geometricPrecision; image-rendering:optimizeQuality; fill-rule:evenodd; clip-rule:evenodd" xmlns:xlink="http://www.w3.org/1999/xlink">
<g><path style="opacity:1" fill="#ba74fc" d="M 127.5,43.5 C 125.372,46.1444 123.872,49.1444 123,52.5C 118.052,78.9051 112.719,105.238 107,131.5C 107.581,141.118 105.248,150.118 100,158.5C 98.9505,159.517 97.7839,159.684 96.5,159C 93.3379,152.345 90.6713,145.512 88.5,138.5C 89.404,137.791 89.7373,136.791 89.5,135.5C 90.0431,135.44 90.3764,135.107 90.5,134.5C 89.635,131.338 88.635,128.338 87.5,125.5C 86.5489,124.081 86.2155,122.415 86.5,120.5C 86.4512,116.922 85.7846,113.589 84.5,110.5C 82.8821,105.744 81.8821,100.744 81.5,95.5C 80.9128,88.8912 79.5795,82.5579 77.5,76.5C 76.6168,66.5284 74.4501,56.8618 71,47.5C 70.3292,46.7476 69.4959,46.4142 68.5,46.5C 67.0968,43.7001 68.0968,42.2001 71.5,42C 77.1822,40.3774 82.8489,39.8774 88.5,40.5C 89.9443,54.6077 93.111,68.2744 98,81.5C 99.6625,79.8421 100.496,77.8421 100.5,75.5C 104.236,63.8702 106.736,51.8702 108,39.5C 108.414,39.0426 108.914,38.7093 109.5,38.5C 115.683,39.9282 121.683,41.5948 127.5,43.5 Z"/></g>
<g><path style="opacity:1" fill="#ba74fd" d="M 141.5,39.5 C 142.369,43.1628 143.369,46.8294 144.5,50.5C 144.32,51.5539 143.987,52.5539 143.5,53.5C 148.986,54.8147 154.32,54.8147 159.5,53.5C 165.593,53.8608 171.593,53.3608 177.5,52C 180.527,49.497 182.36,46.3303 183,42.5C 183.995,43.0659 184.828,43.7326 185.5,44.5C 189.274,50.6011 190.441,57.2677 189,64.5C 182.98,82.5046 170.98,94.5046 153,100.5C 152.228,100.355 151.561,100.022 151,99.5C 150.727,97.8988 150.227,96.3988 149.5,95C 145.778,94.7618 142.111,94.2618 138.5,93.5C 137.205,94.0983 135.872,94.5983 134.5,95C 130.991,109.704 127.324,124.371 123.5,139C 124.817,143.175 124.651,147.342 123,151.5C 120.334,152.893 117.834,154.559 115.5,156.5C 114.522,156.023 113.689,155.357 113,154.5C 112.252,152.091 111.085,149.925 109.5,148C 110.737,144.549 111.737,141.049 112.5,137.5C 113.338,137.158 113.672,136.492 113.5,135.5C 114.167,135.5 114.5,135.167 114.5,134.5C 114.5,133.5 114.5,132.5 114.5,131.5C 114.833,130.833 115.167,130.167 115.5,129.5C 115.5,128.5 115.5,127.5 115.5,126.5C 115.833,125.833 116.167,125.167 116.5,124.5C 116.5,123.5 116.5,122.5 116.5,121.5C 117.338,121.158 117.672,120.492 117.5,119.5C 117.5,118.5 117.5,117.5 117.5,116.5C 118.167,116.5 118.5,116.167 118.5,115.5C 118.5,114.167 118.5,112.833 118.5,111.5C 119.167,111.5 119.5,111.167 119.5,110.5C 119.5,109.167 119.5,107.833 119.5,106.5C 120.167,106.5 120.5,106.167 120.5,105.5C 120.5,104.167 120.5,102.833 120.5,101.5C 121.434,100.432 121.768,99.099 121.5,97.5C 121.039,91.7791 122.039,86.1124 124.5,80.5C 125.167,80.5 125.5,80.1667 125.5,79.5C 127.452,76.2828 127.452,73.1161 125.5,70C 126.587,65.1507 127.754,60.3174 129,55.5C 131.689,54.1784 132.189,52.345 130.5,50C 130.519,48.167 131.185,46.667 132.5,45.5C 135.361,43.9925 137.694,41.8258 139.5,39C 140.437,38.3083 141.103,38.475 141.5,39.5 Z"/></g>
<g><path style="opacity:0.235" fill="#000000" d="M 56.5,40.5 C 55.5,41.1667 54.5,41.8333 53.5,42.5C 53.6682,39.9486 54.6682,39.2819 56.5,40.5 Z"/></g>
<g><path style="opacity:0.121" fill="#000000" d="M 141.5,39.5 C 143.827,39.2471 145.827,39.9137 147.5,41.5C 148.518,45.5226 149.518,49.5226 150.5,53.5C 153.5,53.5 156.5,53.5 159.5,53.5C 154.32,54.8147 148.986,54.8147 143.5,53.5C 143.987,52.5539 144.32,51.5539 144.5,50.5C 143.369,46.8294 142.369,43.1628 141.5,39.5 Z"/></g>
<g><path style="opacity:0.135" fill="#000000" d="M 88.5,40.5 C 90.4672,40.2606 92.3005,40.5939 94,41.5C 95.2223,53.0481 97.389,64.3814 100.5,75.5C 100.496,77.8421 99.6625,79.8421 98,81.5C 93.111,68.2744 89.9443,54.6077 88.5,40.5 Z"/></g>
<g><path style="opacity:1" fill="#bb74fe" d="M 56.5,40.5 C 57.1667,40.5 57.5,40.8333 57.5,41.5C 59.1462,44.9193 61.6462,47.586 65,49.5C 65.6514,51.235 65.4847,52.9017 64.5,54.5C 65.2421,55.2868 66.0754,55.9535 67,56.5C 68.0397,61.3655 69.2064,66.1988 70.5,71C 70.0496,72.2853 69.3829,73.452 68.5,74.5C 69.2132,76.7759 69.7132,79.1093 70,81.5C 72.3927,83.6188 73.7261,86.2855 74,89.5C 74,92.8333 74,96.1667 74,99.5C 77.2356,116.442 81.4023,133.109 86.5,149.5C 84.4685,152.302 82.6352,155.302 81,158.5C 79.0478,156.106 76.5478,154.606 73.5,154C 72.9152,152.698 72.2485,151.531 71.5,150.5C 71.5,147.833 71.5,145.167 71.5,142.5C 68.6598,127.134 65.4932,111.8 62,96.5C 56.5449,95.288 51.0449,95.288 45.5,96.5C 45.8186,98.7505 45.3186,100.75 44,102.5C 26.0721,96.0706 13.5721,84.0706 6.5,66.5C 6.33407,61.4889 6.50074,56.4889 7,51.5C 7.88343,48.8976 9.38343,46.7309 11.5,45C 12.5768,44.5304 13.5768,44.6971 14.5,45.5C 14.872,52.1982 18.5387,55.5316 25.5,55.5C 34.1667,55.5 42.8333,55.5 51.5,55.5C 51.748,51.0938 52.4147,46.7604 53.5,42.5C 54.5,41.8333 55.5,41.1667 56.5,40.5 Z"/></g>
<g><path style="opacity:0.21" fill="#000000" d="M 57.5,41.5 C 61.8662,41.0228 64.8662,42.8561 66.5,47C 67.4368,47.6917 68.1034,47.525 68.5,46.5C 69.4959,46.4142 70.3292,46.7476 71,47.5C 74.4501,56.8618 76.6168,66.5284 77.5,76.5C 79.5795,82.5579 80.9128,88.8912 81.5,95.5C 80.3592,98.6399 80.1925,101.973 81,105.5C 83.2033,116.7 85.7033,127.7 88.5,138.5C 90.6713,145.512 93.3379,152.345 96.5,159C 97.7839,159.684 98.9505,159.517 100,158.5C 105.248,150.118 107.581,141.118 107,131.5C 112.719,105.238 118.052,78.9051 123,52.5C 123.872,49.1444 125.372,46.1444 127.5,43.5C 129.698,43.1201 131.365,43.7868 132.5,45.5C 131.185,46.667 130.519,48.167 130.5,50C 132.189,52.345 131.689,54.1784 129,55.5C 127.754,60.3174 126.587,65.1507 125.5,70C 127.452,73.1161 127.452,76.2828 125.5,79.5C 124.955,75.8284 124.622,76.1617 124.5,80.5C 122.039,86.1124 121.039,91.7791 121.5,97.5C 120.479,97.8993 120.146,99.2326 120.5,101.5C 119.167,102.833 119.167,104.167 120.5,105.5C 120.5,106.167 120.167,106.5 119.5,106.5C 118.167,107.833 118.167,109.167 119.5,110.5C 119.5,111.167 119.167,111.5 118.5,111.5C 117.167,112.833 117.167,114.167 118.5,115.5C 118.5,116.167 118.167,116.5 117.5,116.5C 116.167,117.5 116.167,118.5 117.5,119.5C 117.672,120.492 117.338,121.158 116.5,121.5C 115.231,121.743 115.231,122.743 116.5,124.5C 116.167,125.167 115.833,125.833 115.5,126.5C 114.167,127.5 114.167,128.5 115.5,129.5C 115.167,130.167 114.833,130.833 114.5,131.5C 113.167,132.5 113.167,133.5 114.5,134.5C 114.5,135.167 114.167,135.5 113.5,135.5C 112.662,135.842 112.328,136.508 112.5,137.5C 111.737,141.049 110.737,144.549 109.5,148C 111.085,149.925 112.252,152.091 113,154.5C 113.689,155.357 114.522,156.023 115.5,156.5C 117.834,154.559 120.334,152.893 123,151.5C 124.651,147.342 124.817,143.175 123.5,139C 127.324,124.371 130.991,109.704 134.5,95C 135.872,94.5983 137.205,94.0983 138.5,93.5C 142.111,94.2618 145.778,94.7618 149.5,95C 150.227,96.3988 150.727,97.8988 151,99.5C 151.561,100.022 152.228,100.355 153,100.5C 170.98,94.5046 182.98,82.5046 189,64.5C 190.441,57.2677 189.274,50.6011 185.5,44.5C 190.886,44.3773 194.053,47.044 195,52.5C 196.88,79.5684 185.047,97.7351 159.5,107C 156.833,107.667 154.167,107.667 151.5,107C 150.594,105.301 150.261,103.467 150.5,101.5C 146.833,101.5 143.167,101.5 139.5,101.5C 137.117,114.915 134.283,128.249 131,141.5C 130.667,145.833 130.333,150.167 130,154.5C 129.837,156.676 129.004,158.509 127.5,160C 125.382,160.26 123.716,161.26 122.5,163C 119.833,163.667 117.167,163.667 114.5,163C 110.734,154.34 107.901,154.84 106,164.5C 102.667,167.167 99.3333,167.167 96,164.5C 95.2754,162.051 94.2754,159.717 93,157.5C 90.6922,158.877 89.1922,160.877 88.5,163.5C 85.5541,164.655 82.5541,164.821 79.5,164C 77.5318,162.456 75.3651,161.289 73,160.5C 71.9571,157.243 71.4571,153.91 71.5,150.5C 72.2485,151.531 72.9152,152.698 73.5,154C 76.5478,154.606 79.0478,156.106 81,158.5C 82.6352,155.302 84.4685,152.302 86.5,149.5C 81.4023,133.109 77.2356,116.442 74,99.5C 74,96.1667 74,92.8333 74,89.5C 73.7261,86.2855 72.3927,83.6188 70,81.5C 69.7132,79.1093 69.2132,76.7759 68.5,74.5C 69.3829,73.452 70.0496,72.2853 70.5,71C 69.2064,66.1988 68.0397,61.3655 67,56.5C 66.0754,55.9535 65.2421,55.2868 64.5,54.5C 65.4847,52.9017 65.6514,51.235 65,49.5C 61.6462,47.586 59.1462,44.9193 57.5,41.5 Z M 77.5,76.5 C 77.75,79.214 77.9167,81.8806 78,84.5C 75.0999,82.0569 74.9332,79.3903 77.5,76.5 Z M 81.5,95.5 C 81.8821,100.744 82.8821,105.744 84.5,110.5C 84.322,114.122 84.9886,117.456 86.5,120.5C 86.2155,122.415 86.5489,124.081 87.5,125.5C 87.5399,128.988 88.2066,132.321 89.5,135.5C 89.7373,136.791 89.404,137.791 88.5,138.5C 85.7033,127.7 83.2033,116.7 81,105.5C 80.1925,101.973 80.3592,98.6399 81.5,95.5 Z"/></g>
<g><path style="opacity:0.047" fill="#000000" d="M 14.5,45.5 C 19.0308,44.8861 21.1975,46.8861 21,51.5C 22.3968,53.0703 23.8968,54.4036 25.5,55.5C 18.5387,55.5316 14.872,52.1982 14.5,45.5 Z"/></g>
<g><path style="opacity:0.158" fill="#000000" d="M 6.5,66.5 C 13.5721,84.0706 26.0721,96.0706 44,102.5C 45.3186,100.75 45.8186,98.7505 45.5,96.5C 51.0449,95.288 56.5449,95.288 62,96.5C 65.4932,111.8 68.6598,127.134 71.5,142.5C 67.8933,129.737 64.7266,116.737 62,103.5C 59.2628,102.39 56.4294,102.223 53.5,103C 51.8078,104.401 51.1412,106.234 51.5,108.5C 47.7969,109.83 44.1303,109.664 40.5,108C 21.2136,100.559 9.88024,86.7252 6.5,66.5 Z"/></g>
<g><path style="opacity:0.342" fill="#000000" d="M 144.5,80.5 C 142.167,80.5 139.833,80.5 137.5,80.5C 137.466,77.8015 138.133,75.3015 139.5,73C 144.391,71.8859 149.391,71.3859 154.5,71.5C 158.833,71.6667 163.167,71.8333 167.5,72C 166.072,74.1847 164.405,76.1847 162.5,78C 156.427,79.0799 150.427,79.9132 144.5,80.5 Z"/></g>
<g><path style="opacity:0.268" fill="#000000" d="M 29.5,73.5 C 38.5246,73.1685 47.5246,73.5018 56.5,74.5C 57.4067,77.0567 58.4067,79.5567 59.5,82C 50.9623,83.1582 42.6289,82.4915 34.5,80C 32.2101,78.2228 30.5434,76.0562 29.5,73.5 Z"/></g>
<g><path style="opacity:0.01" fill="#000000" d="M 84.5,110.5 C 85.7846,113.589 86.4512,116.922 86.5,120.5C 84.9886,117.456 84.322,114.122 84.5,110.5 Z"/></g>
<g><path style="opacity:0.012" fill="#000000" d="M 87.5,125.5 C 88.635,128.338 89.635,131.338 90.5,134.5C 90.3764,135.107 90.0431,135.44 89.5,135.5C 88.2066,132.321 87.5399,128.988 87.5,125.5 Z"/></g>
</svg>