<?xml version="1.0" encoding="UTF-8"?>
<!DOCTYPE svg PUBLIC "-//W3C//DTD SVG 1.1//EN" "http://www.w3.org/Graphics/SVG/1.1/DTD/svg11.dtd">
<svg xmlns="http://www.w3.org/2000/svg" version="1.1" width="150px" height="150px" style="shape-rendering:geometricPrecision; text-rendering:geometricPrecision; image-rendering:optimizeQuality; fill-rule:evenodd; clip-rule:evenodd" xmlns:xlink="http://www.w3.org/1999/xlink">
<g><path style="opacity:0.999" fill="#bb75ff" d="M 70.5,5.5 C 90.1006,8.39995 109.434,12.5666 128.5,18C 129.701,18.9025 130.535,20.0692 131,21.5C 131.667,44.8333 131.667,68.1667 131,91.5C 129.374,101.588 124.541,109.755 116.5,116C 102.671,125.415 88.6709,134.582 74.5,143.5C 60.3291,134.582 46.3291,125.415 32.5,116C 24.4594,109.755 19.6261,101.588 18,91.5C 17.0203,67.4122 17.3537,43.4122 19,19.5C 20.7998,17.683 22.9664,16.5163 25.5,16C 40.7308,12.9247 55.7308,9.42468 70.5,5.5 Z M 101.5,52.5 C 104.899,54.3883 107.899,56.8883 110.5,60C 97.6527,73.0141 84.6527,85.8475 71.5,98.5C 62.6809,90.1811 54.0142,81.6811 45.5,73C 48.0159,70.3167 50.6826,67.8167 53.5,65.5C 59.4854,70.9851 65.3188,76.6518 71,82.5C 81.672,72.9945 91.8387,62.9945 101.5,52.5 Z"/></g>
</svg>