<?xml version="1.0" encoding="UTF-8"?>
<!DOCTYPE svg PUBLIC "-//W3C//DTD SVG 1.1//EN" "http://www.w3.org/Graphics/SVG/1.1/DTD/svg11.dtd">
<svg xmlns="http://www.w3.org/2000/svg" version="1.1" width="150px" height="150px" style="shape-rendering:geometricPrecision; text-rendering:geometricPrecision; image-rendering:optimizeQuality; fill-rule:evenodd; clip-rule:evenodd" xmlns:xlink="http://www.w3.org/1999/xlink">
<g><path style="opacity:0.998" fill="#bb75ff" d="M 149.5,23.5 C 149.5,26.5 149.5,29.5 149.5,32.5C 147.968,34.5207 145.968,36.0207 143.5,37C 123.167,37.3333 102.833,37.6667 82.5,38C 73.684,51.2716 62.0174,54.605 47.5,48C 43.8071,45.2738 40.8071,41.9405 38.5,38C 27.1667,37.6667 15.8333,37.3333 4.5,37C 2.63834,35.6343 0.971672,34.1343 -0.5,32.5C -0.5,29.5 -0.5,26.5 -0.5,23.5C 1.06914,20.7716 3.40247,18.9383 6.5,18C 17.1667,17.6667 27.8333,17.3333 38.5,17C 47.0117,4.03904 58.3451,0.705702 72.5,7C 76.3582,9.3581 79.3582,12.5248 81.5,16.5C 101.825,17.3331 122.158,17.8331 142.5,18C 145.598,18.9383 147.931,20.7716 149.5,23.5 Z M 59.5,18.5 C 65.5862,18.7525 68.9195,21.9192 69.5,28C 67.4852,35.6741 62.8185,38.0074 55.5,35C 49.5595,27.7189 50.8929,22.2189 59.5,18.5 Z"/></g>
<g><path style="opacity:0.998" fill="#bb75ff" d="M 149.5,70.5 C 149.5,73.1667 149.5,75.8333 149.5,78.5C 148.023,80.807 146.023,82.6403 143.5,84C 135.479,84.1684 127.479,84.6684 119.5,85.5C 110.171,99.327 98.1713,102.16 83.5,94C 80.6,91.6032 78.2667,88.7698 76.5,85.5C 52.8404,84.6669 29.1737,84.1669 5.5,84C 3.34004,82.668 1.34004,81.168 -0.5,79.5C -0.5,76.5 -0.5,73.5 -0.5,70.5C 1.06914,67.7716 3.40247,65.9383 6.5,65C 29.8405,64.8331 53.1738,64.3331 76.5,63.5C 85.0511,50.484 96.3845,47.3174 110.5,54C 114.553,56.3867 117.553,59.72 119.5,64C 127.167,64.3333 134.833,64.6667 142.5,65C 145.598,65.9383 147.931,67.7716 149.5,70.5 Z M 97.5,65.5 C 105.51,67.1867 108.01,71.8533 105,79.5C 100.697,84.4243 96.0301,84.7576 91,80.5C 87.3887,72.7627 89.5554,67.7627 97.5,65.5 Z"/></g>
<g><path style="opacity:0.998" fill="#bb75ff" d="M 149.5,117.5 C 149.5,120.167 149.5,122.833 149.5,125.5C 148.023,127.807 146.023,129.64 143.5,131C 119.826,131.167 96.1596,131.667 72.5,132.5C 63.8571,145.101 52.5237,148.268 38.5,142C 34.4466,139.613 31.4466,136.28 29.5,132C 21.5,131.667 13.5,131.333 5.5,131C 3.34004,129.668 1.34004,128.168 -0.5,126.5C -0.5,123.167 -0.5,119.833 -0.5,116.5C 1.34004,114.832 3.34004,113.332 5.5,112C 13.5207,111.832 21.5207,111.332 29.5,110.5C 38.0511,97.484 49.3845,94.3174 63.5,101C 67.3582,103.358 70.3582,106.525 72.5,110.5C 96.1596,111.333 119.826,111.833 143.5,112C 146.023,113.36 148.023,115.193 149.5,117.5 Z M 48.5,112.5 C 57.2276,112.625 60.7276,116.958 59,125.5C 53.1586,132.394 47.8253,132.061 43,124.5C 41.4856,118.877 43.3189,114.877 48.5,112.5 Z"/></g>
</svg>