<?xml version="1.0" encoding="UTF-8"?>
<!DOCTYPE svg PUBLIC "-//W3C//DTD SVG 1.1//EN" "http://www.w3.org/Graphics/SVG/1.1/DTD/svg11.dtd">
<svg xmlns="http://www.w3.org/2000/svg" version="1.1" width="512px" height="512px" style="shape-rendering:geometricPrecision; text-rendering:geometricPrecision; image-rendering:optimizeQuality; fill-rule:evenodd; clip-rule:evenodd" xmlns:xlink="http://www.w3.org/1999/xlink">
<g><path style="opacity:0.999" fill="#bb75ff" d="M 434.5,31.5 C 444.839,31.3335 455.172,31.5002 465.5,32C 468.974,32.3007 472.308,33.134 475.5,34.5C 476.584,35.6651 477.417,36.9984 478,38.5C 480.996,58.9155 480.329,79.2489 476,99.5C 457.138,183.087 417.638,254.921 357.5,315C 347.885,324.119 337.552,332.286 326.5,339.5C 331.198,399.565 306.198,441.732 251.5,466C 234.285,473.855 216.285,478.188 197.5,479C 193.576,476.657 191.576,473.157 191.5,468.5C 194.61,441.345 197.61,414.179 200.5,387C 200.167,385.5 199.833,384 199.5,382.5C 194.219,381.714 188.885,381.214 183.5,381C 179.981,380.605 176.648,379.605 173.5,378C 160.029,365.53 146.862,352.696 134,339.5C 133,337.5 132,335.5 131,333.5C 130.208,325.405 129.041,317.405 127.5,309.5C 99.0431,313.014 70.5431,316.347 42,319.5C 35.3113,319.145 31.478,315.645 30.5,309C 35.3268,275.862 48.1602,246.362 69,220.5C 96.8357,192.218 130.669,180.385 170.5,185C 202.091,142.391 241.091,108.391 287.5,83C 333.546,56.9314 382.546,39.7647 434.5,31.5 Z M 319.5,136.5 C 340.152,134.247 356.318,141.58 368,158.5C 380.493,184.689 375.326,206.522 352.5,224C 334.431,233.183 316.764,232.516 299.5,222C 281.17,206.521 276.003,187.354 284,164.5C 291.336,149.317 303.169,139.984 319.5,136.5 Z"/></g>
<g><path style="opacity:0.996" fill="#bb75ff" d="M 107.5,334.5 C 110.961,334.796 112.961,336.629 113.5,340C 107.639,350.583 103.973,361.916 102.5,374C 104.868,395.535 116.868,407.035 138.5,408.5C 146.353,407.453 154.02,405.62 161.5,403C 164.524,401.487 167.191,399.487 169.5,397C 173.036,397.011 175.37,398.844 176.5,402.5C 172.54,426.946 158.873,443.113 135.5,451C 106.702,459.198 77.3691,463.532 47.5,464C 47.0716,431.007 52.2383,398.84 63,367.5C 72.2251,348.816 87.0585,337.816 107.5,334.5 Z"/></g>
</svg>