<?xml version="1.0" encoding="UTF-8"?>
<!DOCTYPE svg PUBLIC "-//W3C//DTD SVG 1.1//EN" "http://www.w3.org/Graphics/SVG/1.1/DTD/svg11.dtd">
<svg xmlns="http://www.w3.org/2000/svg" version="1.1" width="150px" height="150px" style="shape-rendering:geometricPrecision; text-rendering:geometricPrecision; image-rendering:optimizeQuality; fill-rule:evenodd; clip-rule:evenodd" xmlns:xlink="http://www.w3.org/1999/xlink">
<g><path style="opacity:0.998" fill="#bb75ff" d="M 65.5,11.5 C 99.6746,9.82003 122.841,24.82 135,56.5C 135.882,59.7895 136.548,63.1228 137,66.5C 137.667,81.8333 137.667,97.1667 137,112.5C 132.813,128.019 123.146,138.352 108,143.5C 105.603,139.141 104.103,134.475 103.5,129.5C 110.418,128.708 115.751,125.374 119.5,119.5C 113.528,118.67 107.528,118.17 101.5,118C 96.9014,116.402 94.0681,113.235 93,108.5C 92.3333,98.1667 92.3333,87.8333 93,77.5C 94.8333,73 98,69.8333 102.5,68C 109.5,67.6667 116.5,67.3333 123.5,67C 118.643,45.1422 105.31,31.4755 83.5,26C 58.3188,23.1697 40.1521,33.003 29,55.5C 27.6195,59.3051 26.4529,63.1384 25.5,67C 32.5,67.3333 39.5,67.6667 46.5,68C 51,69.8333 54.1667,73 56,77.5C 56.6667,87.8333 56.6667,98.1667 56,108.5C 54.9319,113.235 52.0986,116.402 47.5,118C 38.1667,118.667 28.8333,118.667 19.5,118C 15.9421,116.108 13.4421,113.275 12,109.5C 11.3333,94.8333 11.3333,80.1667 12,65.5C 18.0133,35.6538 35.8467,17.6538 65.5,11.5 Z"/></g>
</svg>