<?xml version="1.0" encoding="UTF-8"?>
<!DOCTYPE svg PUBLIC "-//W3C//DTD SVG 1.1//EN" "http://www.w3.org/Graphics/SVG/1.1/DTD/svg11.dtd">
<svg xmlns="http://www.w3.org/2000/svg" version="1.1" width="150px" height="150px" style="shape-rendering:geometricPrecision; text-rendering:geometricPrecision; image-rendering:optimizeQuality; fill-rule:evenodd; clip-rule:evenodd" xmlns:xlink="http://www.w3.org/1999/xlink">
<g><path style="opacity:0.994" fill="#bb75ff" d="M 66.5,17.5 C 84.9164,15.861 100.916,21.1943 114.5,33.5C 118.985,29.5154 123.318,25.3487 127.5,21C 131.672,19.7093 134.839,20.8759 137,24.5C 137.667,40.1667 137.667,55.8333 137,71.5C 135.786,73.0488 134.286,74.2155 132.5,75C 117.074,75.9675 101.741,75.6342 86.5,74C 83.7104,71.7897 82.877,68.9563 84,65.5C 87.8333,61 92,56.8333 96.5,53C 79.4396,39.8125 63.6063,41.3125 49,57.5C 41.7684,69.6899 42.1017,81.6899 50,93.5C 60.4027,104.782 72.9027,107.949 87.5,103C 91.698,101.067 95.3647,98.4006 98.5,95C 107.135,90.7673 113.635,92.934 118,101.5C 118.738,105.261 118.405,108.928 117,112.5C 92.8978,135.127 67.0645,137.293 39.5,119C 17.8727,99.2032 12.706,75.7032 24,48.5C 33.3026,31.4379 47.4693,21.1046 66.5,17.5 Z"/></g>
</svg>